<?xml version="1.0" encoding="utf-8"?>
<!-- Generator: Adobe Illustrator 16.0.2, SVG Export Plug-In . SVG Version: 6.00 Build 0)  -->
<!DOCTYPE svg PUBLIC "-//W3C//DTD SVG 1.1//EN" "http://www.w3.org/Graphics/SVG/1.1/DTD/svg11.dtd">
<svg version="1.1" id="Layer_1" xmlns="http://www.w3.org/2000/svg" xmlns:xlink="http://www.w3.org/1999/xlink" x="0px" y="0px"
	 width="340.157px" height="170.078px" viewBox="0 0 340.157 170.078" enable-background="new 0 0 340.157 170.078"
	 xml:space="preserve">
<g>
	<path fill="#080808" d="M153.904,92.699l0.214,2.927c0,0-3.831,1.489-8.673,1.489c-7.024,0-10.057-3.99-10.057-13.354
		c0-8.833,3.192-14.207,10.801-14.207c5.428,0,8.886,2.075,8.886,7.13c0,6.438-4.097,8.088-12.876,8.088h-2.768v0.798
		c0,5.002,1.916,8.141,6.227,8.141C149.436,93.709,153.904,92.699,153.904,92.699 M142.146,81.685c6.438,0,8.992-0.958,8.992-4.948
		c0-2.927-1.863-3.885-4.949-3.885c-4.789,0-6.65,3.246-6.705,8.833H142.146z"/>
	<path fill="#080808" d="M180.292,63.648c0,0-5.853-0.745-9.417-0.745c-4.842,0-7.29,1.756-7.29,6.172
		c0,4.47,2.448,5.374,7.982,6.758c6.598,1.649,9.896,3.512,9.896,10.056c0,7.396-3.512,11.281-11.067,11.281
		c-4.15,0-10.537-1.012-10.537-1.012l0.267-3.353c0,0,6.758,0.745,10.271,0.745c4.788,0,6.917-2.501,6.917-7.289
		c0-4.47-2.447-5.693-7.45-6.811c-6.811-1.597-10.481-3.725-10.481-9.949c0-7.077,3.99-10.217,11.28-10.217
		c4.204,0,9.843,1.117,9.843,1.117L180.292,63.648z"/>
	<path fill="#080808" d="M187.205,70.033h3.938l0.054,3.938c0,0,2.979-4.47,7.396-4.47c6.917,0,8.832,5.214,8.832,13.515
		c0,9.099-2.714,14.153-10.481,14.153c-2.607,0-5.746-0.691-5.746-0.691v11.972h-3.992V70.033z M191.197,78.013v15.165
		c0,0,2.979,0.531,5.373,0.531c5.321,0,6.811-3.777,6.811-10.694c0-5.587-0.852-10.057-5.268-10.057
		C194.23,72.958,191.197,78.013,191.197,78.013"/>
	<path fill="#080808" d="M212.369,83.867c0-8.46,2.021-14.366,10.642-14.366c3.032,0,9.577,0.904,9.577,0.904v19.687
		c0,2.501,0.319,6.492,0.319,6.492l-3.991,0.159c0,0-0.266-2.447-0.266-4.576c0,0-2.873,5.002-7.769,5.002
		C214.551,97.168,212.369,92.592,212.369,83.867 M216.413,83.867c0,5.853,1.011,9.843,5.268,9.843c4.043,0,6.917-5.533,6.917-5.533
		V73.438c0,0-3.672-0.479-5.108-0.479C217.743,72.958,216.413,76.737,216.413,83.867"/>
	<path fill="#080808" d="M255.357,70.298l-0.159,3.192c0,0-3.565-0.479-5.48-0.479c-5.48,0-7.076,3.245-7.076,9.95
		c0,6.65,0.903,10.747,7.076,10.747c1.915,0,5.48-0.426,5.48-0.426l0.159,3.14c0,0-3.777,0.745-6.491,0.745
		c-8.406,0-10.322-5.161-10.322-14.206c0-9.311,3.14-13.462,10.376-13.462C251.633,69.5,255.357,70.298,255.357,70.298"/>
	<path fill="#080808" d="M277.914,92.699l0.213,2.927c0,0-3.831,1.489-8.673,1.489c-7.023,0-10.056-3.99-10.056-13.354
		c0-8.833,3.192-14.207,10.801-14.207c5.428,0,8.886,2.075,8.886,7.13c0,6.438-4.097,8.088-12.876,8.088h-2.767v0.798
		c0,5.002,1.915,8.141,6.225,8.141C273.445,93.709,277.914,92.699,277.914,92.699 M266.155,81.685c6.438,0,8.992-0.958,8.992-4.948
		c0-2.927-1.862-3.885-4.948-3.885c-4.788,0-6.65,3.246-6.704,8.833H266.155z"/>
	<path fill="#080808" d="M300.737,73.597c0,0-5.002-0.639-8.514-0.639c-2.447,0-4.842,1.064-4.842,4.044
		c0,2.82,1.703,3.565,5.587,4.311c5.373,1.17,8.779,1.968,8.779,7.502c0,6.491-3.725,8.354-9.631,8.354
		c-3.618,0-8.673-1.064-8.673-1.064l0.267-3.245c0,0,5.533,0.851,8.087,0.851c4.043,0,5.96-1.063,5.96-4.522
		c0-3.139-2.235-3.564-5.906-4.257c-5.108-1.063-8.46-2.341-8.46-7.608c0-5.8,4.363-7.821,8.673-7.821
		c4.416,0,8.832,0.904,8.832,0.904L300.737,73.597z"/>
	<path fill="#009DCD" d="M38.409,59.63l43.924,25.282l-43.924,25.281V59.63z M40.197,56.567l43.924-25.283v24.261L61.137,68.569
		L40.197,56.567z M84.121,138.794l-43.924-25.537l43.924-25.28V138.794z M87.696,31.284l43.667,25.283L87.696,81.848V31.284z
		 M87.696,138.794V87.977l43.667,25.28L87.696,138.794z"/>
</g>
</svg>
