<?xml version="1.0" encoding="utf-8"?>
<!-- Generator: Adobe Illustrator 16.0.2, SVG Export Plug-In . SVG Version: 6.00 Build 0)  -->
<!DOCTYPE svg PUBLIC "-//W3C//DTD SVG 1.1//EN" "http://www.w3.org/Graphics/SVG/1.1/DTD/svg11.dtd">
<svg version="1.1" id="Layer_1" xmlns="http://www.w3.org/2000/svg" xmlns:xlink="http://www.w3.org/1999/xlink" x="0px" y="0px"
	 width="425.197px" height="170.079px" viewBox="0 0 425.197 170.079" enable-background="new 0 0 425.197 170.079"
	 xml:space="preserve">
<g>
	<path d="M144.403,92.7l0.214,2.926c0,0-3.831,1.49-8.674,1.49c-7.023,0-10.056-3.991-10.056-13.355
		c0-8.832,3.192-14.206,10.8-14.206c5.429,0,8.887,2.075,8.887,7.13c0,6.438-4.098,8.087-12.876,8.087h-2.768v0.798
		c0,5.002,1.916,8.141,6.227,8.141C139.934,93.71,144.403,92.7,144.403,92.7 M132.645,81.686c6.438,0,8.992-0.958,8.992-4.948
		c0-2.927-1.863-3.885-4.949-3.885c-4.788,0-6.649,3.246-6.704,8.833H132.645z"/>
	<path d="M170.791,63.648c0,0-5.854-0.745-9.417-0.745c-4.842,0-7.29,1.756-7.29,6.172c0,4.47,2.448,5.374,7.98,6.758
		c6.599,1.649,9.897,3.511,9.897,10.056c0,7.396-3.512,11.279-11.067,11.279c-4.149,0-10.536-1.011-10.536-1.011l0.267-3.352
		c0,0,6.758,0.745,10.27,0.745c4.788,0,6.917-2.502,6.917-7.291c0-4.468-2.447-5.692-7.45-6.809c-6.81-1.596-10.48-3.725-10.48-9.95
		c0-7.077,3.99-10.216,11.28-10.216c4.203,0,9.843,1.117,9.843,1.117L170.791,63.648z"/>
	<path d="M177.704,70.033h3.938l0.053,3.937c0,0,2.979-4.469,7.396-4.469c6.917,0,8.832,5.214,8.832,13.514
		c0,9.099-2.714,14.153-10.481,14.153c-2.607,0-5.747-0.691-5.747-0.691v11.973h-3.991V70.033z M181.695,78.014v15.164
		c0,0,2.979,0.531,5.374,0.531c5.321,0,6.811-3.777,6.811-10.694c0-5.586-0.852-10.056-5.268-10.056
		C184.729,72.959,181.695,78.014,181.695,78.014"/>
	<path d="M202.868,83.867c0-8.46,2.021-14.366,10.642-14.366c3.032,0,9.577,0.905,9.577,0.905v19.687c0,2.5,0.319,6.491,0.319,6.491
		l-3.991,0.159c0,0-0.266-2.447-0.266-4.574c0,0-2.873,5-7.769,5C205.05,97.168,202.868,92.592,202.868,83.867 M206.912,83.867
		c0,5.853,1.011,9.845,5.268,9.845c4.043,0,6.917-5.535,6.917-5.535V73.439c0,0-3.672-0.479-5.108-0.479
		C208.242,72.96,206.912,76.738,206.912,83.867"/>
	<path d="M245.856,70.299l-0.159,3.193c0,0-3.565-0.479-5.48-0.479c-5.48,0-7.076,3.245-7.076,9.95
		c0,6.65,0.903,10.749,7.076,10.749c1.915,0,5.48-0.427,5.48-0.427l0.159,3.14c0,0-3.777,0.744-6.491,0.744
		c-8.406,0-10.322-5.16-10.322-14.206c0-9.312,3.14-13.462,10.376-13.462C242.132,69.501,245.856,70.299,245.856,70.299"/>
	<path d="M268.413,92.7l0.213,2.926c0,0-3.831,1.49-8.673,1.49c-7.023,0-10.056-3.991-10.056-13.355
		c0-8.832,3.192-14.206,10.801-14.206c5.428,0,8.886,2.075,8.886,7.13c0,6.438-4.097,8.087-12.876,8.087h-2.767v0.798
		c0,5.002,1.915,8.141,6.225,8.141C263.944,93.71,268.413,92.7,268.413,92.7 M256.654,81.686c6.438,0,8.992-0.958,8.992-4.948
		c0-2.927-1.862-3.885-4.948-3.885c-4.788,0-6.65,3.246-6.704,8.833H256.654z"/>
	<path d="M291.236,73.598c0,0-5.002-0.639-8.514-0.639c-2.447,0-4.841,1.064-4.841,4.044c0,2.82,1.702,3.565,5.586,4.31
		c5.374,1.17,8.779,1.969,8.779,7.502c0,6.491-3.725,8.354-9.631,8.354c-3.618,0-8.673-1.064-8.673-1.064l0.267-3.244
		c0,0,5.533,0.85,8.087,0.85c4.044,0,5.961-1.063,5.961-4.522c0-3.139-2.236-3.565-5.907-4.256c-5.108-1.064-8.46-2.341-8.46-7.609
		c0-5.799,4.363-7.821,8.673-7.821c4.416,0,8.832,0.904,8.832,0.904L291.236,73.598z"/>
	<path fill="#009DCD" d="M28.913,59.63l43.925,25.282l-43.925,25.281V59.63z M30.701,56.566l43.924-25.282v24.26L51.642,68.568
		L30.701,56.566z M74.625,138.795l-43.924-25.537l43.924-25.282V138.795z M78.2,31.284l43.668,25.282L78.2,81.847V31.284z
		 M78.2,138.795V87.976l43.668,25.282L78.2,138.795z"/>
	<path fill="#82888F" d="M137.88,128.528c0.07,0.143,0.138,0.333,0.202,0.574c0.063,0.242,0.109,0.439,0.138,0.596
		c-0.354,0.128-0.758,0.234-1.213,0.319c-0.454,0.086-0.957,0.128-1.51,0.128c-1.774,0-3.121-0.486-4.045-1.457
		c-0.922-0.973-1.383-2.38-1.383-4.225c0-0.81,0.114-1.558,0.341-2.246c0.227-0.688,0.561-1.287,1-1.797
		c0.439-0.512,0.99-0.912,1.649-1.203c0.66-0.291,1.422-0.437,2.288-0.437c0.539,0,1.053,0.039,1.543,0.118
		c0.489,0.078,0.875,0.167,1.159,0.266c0,0.184-0.024,0.397-0.074,0.639c-0.05,0.24-0.103,0.433-0.16,0.574
		c-0.284-0.1-0.642-0.185-1.075-0.256c-0.432-0.07-0.896-0.105-1.393-0.105c-0.639,0-1.196,0.109-1.671,0.328
		c-0.476,0.222-0.872,0.529-1.192,0.927c-0.318,0.397-0.557,0.866-0.712,1.405c-0.157,0.539-0.233,1.135-0.233,1.787
		c0,1.531,0.363,2.656,1.095,3.373c0.73,0.717,1.721,1.074,2.969,1.074c0.425,0,0.833-0.035,1.224-0.107
		C137.217,128.734,137.567,128.642,137.88,128.528"/>
	<path fill="#82888F" d="M144.817,130.145c-0.81,0-1.519-0.146-2.128-0.437c-0.61-0.291-1.117-0.692-1.521-1.202
		c-0.405-0.511-0.706-1.113-0.905-1.809c-0.198-0.695-0.298-1.439-0.298-2.235c0-0.794,0.1-1.538,0.298-2.233
		c0.199-0.695,0.5-1.299,0.905-1.81c0.404-0.51,0.911-0.911,1.521-1.202c0.609-0.291,1.318-0.436,2.128-0.436
		c0.809,0,1.514,0.145,2.118,0.436c0.602,0.291,1.105,0.692,1.51,1.202c0.405,0.511,0.709,1.114,0.915,1.81s0.309,1.439,0.309,2.233
		c0,0.796-0.103,1.54-0.309,2.235s-0.51,1.298-0.915,1.809c-0.404,0.51-0.908,0.911-1.51,1.202
		C146.331,130,145.626,130.145,144.817,130.145 M144.817,128.911c1.135,0,1.981-0.396,2.543-1.191
		c0.561-0.795,0.841-1.879,0.841-3.257c0-1.375-0.28-2.461-0.841-3.256c-0.562-0.794-1.408-1.19-2.543-1.19
		c-1.136,0-1.983,0.396-2.543,1.19c-0.562,0.795-0.84,1.881-0.84,3.256c0,1.378,0.278,2.462,0.84,3.257
		C142.834,128.514,143.682,128.911,144.817,128.911"/>
	<path fill="#82888F" d="M152.797,114.249c0.085-0.014,0.202-0.023,0.352-0.032c0.148-0.007,0.266-0.01,0.351-0.01
		c0.071,0,0.186,0.003,0.341,0.01c0.156,0.009,0.276,0.019,0.362,0.032v13.13c0,0.369,0.042,0.657,0.127,0.862
		c0.086,0.206,0.192,0.355,0.32,0.447c0.127,0.092,0.269,0.148,0.425,0.17c0.156,0.021,0.298,0.031,0.426,0.031
		c0.156,0,0.319-0.011,0.489-0.031c0.17-0.021,0.312-0.047,0.426-0.074c0.07,0.17,0.12,0.354,0.149,0.553
		c0.027,0.199,0.049,0.383,0.063,0.553c-0.199,0.071-0.423,0.121-0.671,0.149s-0.478,0.043-0.691,0.043
		c-0.298,0-0.596-0.032-0.894-0.097c-0.298-0.063-0.564-0.184-0.798-0.361c-0.234-0.177-0.423-0.418-0.564-0.725
		c-0.142-0.303-0.213-0.705-0.213-1.201V114.249z"/>
	<path fill="#82888F" d="M158.734,114.249c0.085-0.014,0.202-0.023,0.351-0.032c0.149-0.007,0.267-0.01,0.352-0.01
		c0.07,0,0.185,0.003,0.341,0.01c0.155,0.009,0.275,0.019,0.361,0.032v13.13c0,0.369,0.042,0.657,0.127,0.862
		c0.087,0.206,0.192,0.355,0.32,0.447c0.127,0.092,0.27,0.148,0.425,0.17c0.156,0.021,0.299,0.031,0.427,0.031
		c0.155,0,0.318-0.011,0.488-0.031c0.17-0.021,0.313-0.047,0.427-0.074c0.069,0.17,0.119,0.354,0.148,0.553
		c0.028,0.199,0.049,0.383,0.064,0.553c-0.199,0.071-0.423,0.121-0.671,0.149s-0.479,0.043-0.691,0.043
		c-0.298,0-0.596-0.032-0.894-0.097c-0.299-0.063-0.564-0.184-0.799-0.361c-0.233-0.177-0.423-0.418-0.563-0.725
		c-0.143-0.303-0.213-0.705-0.213-1.201V114.249z"/>
	<path fill="#82888F" d="M170.651,122.718c0-0.937-0.221-1.621-0.66-2.054c-0.44-0.432-1.092-0.649-1.958-0.649
		c-0.567,0-1.085,0.039-1.553,0.117c-0.469,0.079-0.888,0.174-1.257,0.288c-0.07-0.128-0.131-0.313-0.18-0.555
		c-0.05-0.24-0.075-0.467-0.075-0.68c0.369-0.113,0.823-0.209,1.362-0.287s1.092-0.117,1.66-0.117c1.376,0,2.396,0.302,3.063,0.904
		c0.667,0.604,1,1.551,1,2.84v7.172c-0.495,0.1-1.099,0.199-1.808,0.299c-0.71,0.099-1.384,0.148-2.022,0.148
		c-1.319,0-2.358-0.262-3.116-0.787c-0.761-0.524-1.14-1.375-1.14-2.554c0-0.567,0.11-1.075,0.33-1.522
		c0.221-0.446,0.524-0.821,0.915-1.127s0.858-0.535,1.404-0.691s1.146-0.234,1.799-0.234c0.51,0,0.95,0.018,1.319,0.053
		c0.369,0.037,0.674,0.067,0.915,0.097V122.718z M170.651,124.612c-0.241-0.027-0.542-0.061-0.904-0.096s-0.706-0.053-1.033-0.053
		c-1.063,0-1.887,0.199-2.468,0.596c-0.582,0.397-0.873,0.965-0.873,1.702c0,0.468,0.089,0.845,0.266,1.128
		c0.179,0.284,0.408,0.5,0.692,0.649s0.596,0.247,0.937,0.298c0.341,0.05,0.681,0.074,1.021,0.074c0.44,0,0.851-0.021,1.234-0.064
		c0.383-0.042,0.759-0.098,1.128-0.17V124.612z"/>
	<path fill="#82888F" d="M175.587,114.249c0.087-0.014,0.202-0.024,0.352-0.032c0.148-0.007,0.266-0.01,0.351-0.01
		c0.072,0,0.186,0.003,0.342,0.01c0.155,0.008,0.276,0.019,0.361,0.032v6.299c0.298-0.454,0.728-0.861,1.287-1.225
		c0.562-0.36,1.288-0.541,2.182-0.541c0.666,0,1.277,0.103,1.83,0.309c0.554,0.205,1.024,0.527,1.414,0.968
		c0.392,0.44,0.696,0.993,0.916,1.659c0.22,0.667,0.33,1.469,0.33,2.405c0,1.887-0.519,3.362-1.554,4.427
		c-1.035,1.063-2.532,1.596-4.49,1.596c-0.638,0-1.255-0.061-1.852-0.181c-0.596-0.121-1.084-0.252-1.469-0.394V114.249z
		 M176.992,128.591c0.326,0.114,0.67,0.194,1.032,0.245c0.362,0.05,0.748,0.074,1.16,0.074c0.566,0,1.109-0.092,1.628-0.276
		c0.517-0.185,0.972-0.468,1.362-0.853c0.39-0.381,0.7-0.867,0.936-1.457c0.234-0.588,0.351-1.295,0.351-2.116
		c0-1.291-0.243-2.306-0.733-3.044c-0.489-0.737-1.28-1.106-2.373-1.106c-0.341,0-0.709,0.056-1.107,0.171
		c-0.396,0.112-0.762,0.305-1.095,0.573c-0.334,0.271-0.611,0.628-0.83,1.075c-0.221,0.447-0.33,1.011-0.33,1.691V128.591z"/>
	<path fill="#82888F" d="M192.378,130.145c-0.81,0-1.52-0.146-2.128-0.437c-0.61-0.291-1.117-0.692-1.521-1.202
		c-0.405-0.511-0.706-1.113-0.905-1.809c-0.198-0.695-0.298-1.439-0.298-2.235c0-0.794,0.1-1.538,0.298-2.233
		c0.199-0.695,0.5-1.299,0.905-1.81c0.404-0.51,0.911-0.911,1.521-1.202c0.608-0.291,1.318-0.436,2.128-0.436
		c0.809,0,1.515,0.145,2.117,0.436c0.604,0.291,1.106,0.692,1.511,1.202c0.405,0.511,0.71,1.114,0.915,1.81
		c0.206,0.695,0.309,1.439,0.309,2.233c0,0.796-0.103,1.54-0.309,2.235c-0.205,0.695-0.51,1.298-0.915,1.809
		c-0.404,0.51-0.907,0.911-1.511,1.202C193.893,130,193.187,130.145,192.378,130.145 M192.378,128.911
		c1.135,0,1.981-0.396,2.543-1.191c0.561-0.795,0.841-1.879,0.841-3.257c0-1.375-0.28-2.461-0.841-3.256
		c-0.562-0.794-1.408-1.19-2.543-1.19s-1.982,0.396-2.543,1.19c-0.562,0.795-0.841,1.881-0.841,3.256
		c0,1.378,0.279,2.462,0.841,3.257C190.396,128.514,191.243,128.911,192.378,128.911"/>
	<path fill="#82888F" d="M200.358,119.037c0.112-0.015,0.223-0.024,0.329-0.032c0.106-0.007,0.21-0.01,0.309-0.01
		c0.113,0,0.219,0.003,0.319,0.01c0.1,0.008,0.206,0.018,0.318,0.032c0.029,0.255,0.051,0.558,0.064,0.903
		c0.014,0.349,0.021,0.664,0.021,0.949c0.285-0.525,0.683-0.97,1.193-1.332c0.51-0.36,1.183-0.541,2.021-0.541h0.225
		c0.077,0,0.166,0.006,0.265,0.021c0.043,0.241,0.064,0.468,0.064,0.681c0,0.228-0.021,0.447-0.064,0.66
		c-0.114-0.014-0.202-0.021-0.265-0.021h-0.202c-0.966,0-1.739,0.306-2.321,0.914c-0.582,0.611-0.872,1.625-0.872,3.043v5.576
		c-0.085,0.015-0.201,0.024-0.351,0.032c-0.149,0.007-0.266,0.011-0.351,0.011c-0.071,0-0.185-0.004-0.342-0.011
		c-0.155-0.008-0.275-0.018-0.36-0.032V119.037z"/>
	<path fill="#82888F" d="M213.573,122.718c0-0.937-0.22-1.621-0.66-2.054c-0.439-0.432-1.092-0.649-1.957-0.649
		c-0.568,0-1.086,0.039-1.554,0.117c-0.469,0.079-0.887,0.174-1.256,0.288c-0.071-0.128-0.131-0.313-0.181-0.555
		c-0.05-0.24-0.074-0.467-0.074-0.68c0.368-0.113,0.822-0.209,1.361-0.287s1.092-0.117,1.66-0.117c1.376,0,2.397,0.302,3.064,0.904
		c0.667,0.604,1,1.551,1,2.84v7.172c-0.497,0.1-1.1,0.199-1.809,0.299c-0.71,0.099-1.384,0.148-2.021,0.148
		c-1.319,0-2.359-0.262-3.118-0.787c-0.759-0.524-1.138-1.375-1.138-2.554c0-0.567,0.109-1.075,0.328-1.522
		c0.221-0.446,0.526-0.821,0.916-1.127c0.391-0.306,0.858-0.535,1.405-0.691c0.546-0.156,1.145-0.234,1.798-0.234
		c0.511,0,0.95,0.018,1.319,0.053c0.369,0.037,0.674,0.067,0.915,0.097V122.718z M213.573,124.612
		c-0.241-0.027-0.543-0.061-0.904-0.096c-0.362-0.035-0.706-0.053-1.033-0.053c-1.063,0-1.886,0.199-2.468,0.596
		c-0.582,0.397-0.872,0.965-0.872,1.702c0,0.468,0.088,0.845,0.266,1.128c0.178,0.284,0.408,0.5,0.691,0.649
		c0.284,0.149,0.596,0.247,0.937,0.298c0.341,0.05,0.681,0.074,1.021,0.074c0.439,0,0.852-0.021,1.234-0.064
		c0.383-0.042,0.759-0.098,1.128-0.17V124.612z"/>
	<path fill="#82888F" d="M219,120.229h-1.853c-0.014-0.071-0.024-0.164-0.031-0.277s-0.012-0.227-0.012-0.34
		c0-0.114,0.005-0.221,0.012-0.32s0.018-0.184,0.031-0.255H219v-2.043l1.319-1.298h0.085v3.341h2.937
		c0.014,0.071,0.024,0.155,0.032,0.255c0.007,0.1,0.011,0.206,0.011,0.32c0,0.113-0.004,0.227-0.011,0.34
		c-0.008,0.113-0.019,0.206-0.032,0.277h-2.937v7.064c0,0.355,0.046,0.635,0.139,0.84c0.092,0.206,0.213,0.366,0.361,0.479
		c0.149,0.115,0.319,0.188,0.511,0.225c0.19,0.036,0.387,0.053,0.585,0.053c0.497,0,0.93-0.063,1.299-0.191
		c0.098,0.369,0.17,0.766,0.213,1.191c-0.511,0.156-1.107,0.234-1.788,0.234c-0.809,0-1.465-0.216-1.969-0.648
		c-0.503-0.434-0.755-1.14-0.755-2.117V120.229z"/>
	<path fill="#82888F" d="M226.618,124.675c0,1.448,0.333,2.513,1,3.192c0.667,0.681,1.667,1.021,3.001,1.021
		c0.539,0,1.039-0.046,1.5-0.138c0.461-0.093,0.911-0.216,1.352-0.372c0.07,0.156,0.127,0.348,0.17,0.574s0.07,0.433,0.085,0.617
		c-0.412,0.185-0.894,0.326-1.447,0.426c-0.553,0.099-1.156,0.148-1.809,0.148c-0.937,0-1.741-0.139-2.415-0.414
		c-0.674-0.277-1.228-0.664-1.66-1.16c-0.433-0.498-0.752-1.09-0.958-1.777s-0.309-1.443-0.309-2.268
		c0-0.793,0.097-1.539,0.288-2.233c0.19-0.695,0.481-1.306,0.872-1.83c0.39-0.524,0.891-0.937,1.5-1.233
		c0.609-0.299,1.341-0.447,2.192-0.447c0.708,0,1.341,0.119,1.894,0.361c0.554,0.241,1.019,0.578,1.395,1.01
		c0.375,0.435,0.659,0.951,0.851,1.555s0.287,1.259,0.287,1.968c0,0.128-0.003,0.291-0.01,0.49c-0.008,0.198-0.019,0.368-0.032,0.51
		H226.618z M233.002,123.505c0-0.438-0.057-0.873-0.17-1.298c-0.114-0.426-0.291-0.799-0.532-1.117s-0.553-0.578-0.937-0.777
		c-0.383-0.199-0.844-0.298-1.383-0.298c-0.993,0-1.767,0.306-2.319,0.915c-0.555,0.61-0.887,1.469-1.001,2.575H233.002z"/>
	<path fill="#82888F" d="M242.216,129.889c-0.042-0.297-0.063-0.596-0.063-0.894c0-0.312,0.021-0.617,0.063-0.915
		c0.299-0.043,0.597-0.064,0.895-0.064c0.312,0,0.617,0.021,0.915,0.064c0.042,0.298,0.063,0.596,0.063,0.895
		c0,0.312-0.021,0.617-0.063,0.914c-0.298,0.043-0.596,0.064-0.895,0.064C242.819,129.954,242.515,129.932,242.216,129.889"/>
	<path fill="#82888F" d="M252.196,128.4c0.312,0.128,0.716,0.238,1.213,0.33c0.496,0.092,0.972,0.138,1.426,0.138
		c0.851,0,1.524-0.188,2.021-0.563c0.496-0.375,0.745-0.841,0.745-1.394c0-0.384-0.075-0.699-0.224-0.947
		c-0.149-0.248-0.348-0.457-0.596-0.627c-0.249-0.17-0.529-0.31-0.841-0.416c-0.313-0.105-0.632-0.215-0.958-0.33
		c-0.354-0.112-0.706-0.24-1.053-0.383c-0.349-0.142-0.657-0.322-0.926-0.543c-0.271-0.22-0.486-0.485-0.649-0.798
		c-0.163-0.312-0.245-0.702-0.245-1.17c0-0.864,0.315-1.567,0.947-2.106c0.631-0.539,1.606-0.81,2.926-0.81
		c0.554,0,1.089,0.05,1.607,0.149c0.518,0.1,0.917,0.205,1.202,0.32c-0.071,0.41-0.171,0.815-0.298,1.213
		c-0.298-0.101-0.678-0.199-1.139-0.299c-0.461-0.099-0.94-0.148-1.437-0.148c-0.865,0-1.479,0.152-1.841,0.457
		s-0.543,0.706-0.543,1.201c0,0.271,0.061,0.5,0.181,0.692c0.121,0.192,0.284,0.355,0.49,0.49c0.205,0.134,0.439,0.251,0.702,0.351
		s0.543,0.191,0.841,0.276c0.383,0.128,0.77,0.267,1.159,0.416c0.391,0.147,0.745,0.343,1.064,0.584
		c0.319,0.242,0.581,0.547,0.787,0.916s0.309,0.83,0.309,1.383c0,0.511-0.103,0.976-0.309,1.394s-0.493,0.773-0.861,1.064
		c-0.369,0.291-0.809,0.514-1.319,0.67s-1.072,0.234-1.682,0.234c-0.682,0-1.287-0.042-1.819-0.128
		c-0.532-0.085-0.961-0.198-1.287-0.341C251.877,129.252,252.011,128.827,252.196,128.4"/>
	<path fill="#82888F" d="M262.113,114.249c0.085-0.014,0.202-0.023,0.351-0.032c0.149-0.007,0.267-0.01,0.352-0.01
		c0.069,0,0.184,0.003,0.34,0.01c0.156,0.009,0.277,0.019,0.362,0.032v6.725c0.142-0.256,0.325-0.515,0.553-0.776
		c0.228-0.263,0.49-0.5,0.788-0.714c0.298-0.213,0.635-0.383,1.011-0.51s0.79-0.191,1.245-0.191c1.248,0,2.167,0.372,2.756,1.117
		c0.588,0.744,0.883,1.791,0.883,3.139v6.852c-0.085,0.015-0.202,0.025-0.352,0.032c-0.148,0.007-0.267,0.011-0.352,0.011
		c-0.07,0-0.184-0.004-0.34-0.011s-0.276-0.018-0.361-0.032v-6.427c0-1.205-0.199-2.071-0.597-2.596
		c-0.396-0.525-0.972-0.787-1.724-0.787c-0.496,0-0.961,0.092-1.395,0.276c-0.432,0.185-0.805,0.457-1.116,0.819
		c-0.313,0.362-0.557,0.816-0.734,1.362s-0.266,1.174-0.266,1.883v5.469c-0.085,0.015-0.202,0.025-0.352,0.032
		c-0.148,0.007-0.266,0.011-0.351,0.011c-0.071,0-0.185-0.004-0.341-0.011s-0.276-0.018-0.361-0.032V114.249z"/>
	<path fill="#82888F" d="M280.265,122.718c0-0.937-0.22-1.621-0.66-2.054c-0.439-0.432-1.092-0.649-1.957-0.649
		c-0.568,0-1.086,0.039-1.554,0.117c-0.469,0.079-0.887,0.174-1.256,0.288c-0.071-0.128-0.131-0.313-0.181-0.555
		c-0.05-0.24-0.074-0.467-0.074-0.68c0.368-0.113,0.822-0.209,1.361-0.287s1.092-0.117,1.66-0.117c1.376,0,2.397,0.302,3.064,0.904
		c0.667,0.604,1,1.551,1,2.84v7.172c-0.497,0.1-1.1,0.199-1.809,0.299c-0.71,0.099-1.384,0.148-2.021,0.148
		c-1.319,0-2.359-0.262-3.118-0.787c-0.759-0.524-1.138-1.375-1.138-2.554c0-0.567,0.109-1.075,0.328-1.522
		c0.221-0.446,0.526-0.821,0.916-1.127c0.391-0.306,0.858-0.535,1.405-0.691c0.546-0.156,1.145-0.234,1.798-0.234
		c0.511,0,0.95,0.018,1.319,0.053c0.369,0.037,0.674,0.067,0.915,0.097V122.718z M280.265,124.612
		c-0.241-0.027-0.543-0.061-0.904-0.096c-0.362-0.035-0.706-0.053-1.033-0.053c-1.063,0-1.886,0.199-2.468,0.596
		c-0.582,0.397-0.872,0.965-0.872,1.702c0,0.468,0.088,0.845,0.266,1.128c0.178,0.284,0.408,0.5,0.691,0.649
		c0.284,0.149,0.596,0.247,0.937,0.298c0.341,0.05,0.681,0.074,1.021,0.074c0.439,0,0.852-0.021,1.234-0.064
		c0.383-0.042,0.759-0.098,1.128-0.17V124.612z"/>
	<path fill="#82888F" d="M285.202,119.037c0.113-0.015,0.223-0.024,0.329-0.032c0.106-0.007,0.21-0.01,0.309-0.01
		c0.113,0,0.22,0.003,0.319,0.01c0.1,0.008,0.206,0.018,0.319,0.032c0.028,0.255,0.05,0.558,0.063,0.903
		c0.014,0.349,0.021,0.664,0.021,0.949c0.285-0.525,0.682-0.97,1.192-1.332c0.511-0.36,1.184-0.541,2.021-0.541h0.224
		c0.077,0,0.166,0.006,0.266,0.021c0.043,0.241,0.063,0.468,0.063,0.681c0,0.228-0.021,0.447-0.063,0.66
		c-0.114-0.014-0.202-0.021-0.266-0.021h-0.202c-0.966,0-1.738,0.306-2.32,0.914c-0.582,0.611-0.872,1.625-0.872,3.043v5.576
		c-0.085,0.015-0.202,0.024-0.352,0.032c-0.148,0.007-0.266,0.011-0.351,0.011c-0.071,0-0.185-0.004-0.341-0.011
		c-0.156-0.008-0.276-0.018-0.361-0.032V119.037z"/>
	<path fill="#82888F" d="M293.225,124.675c0,1.448,0.333,2.513,1,3.192c0.667,0.681,1.667,1.021,3.001,1.021
		c0.539,0,1.039-0.046,1.5-0.138c0.461-0.093,0.911-0.216,1.352-0.372c0.07,0.156,0.127,0.348,0.17,0.574s0.07,0.433,0.085,0.617
		c-0.412,0.185-0.894,0.326-1.447,0.426c-0.553,0.099-1.156,0.148-1.809,0.148c-0.937,0-1.741-0.139-2.415-0.414
		c-0.674-0.277-1.228-0.664-1.66-1.16c-0.433-0.498-0.752-1.09-0.958-1.777s-0.309-1.443-0.309-2.268
		c0-0.793,0.097-1.539,0.288-2.233c0.19-0.695,0.481-1.306,0.872-1.83c0.39-0.524,0.891-0.937,1.5-1.233
		c0.609-0.299,1.341-0.447,2.192-0.447c0.708,0,1.341,0.119,1.894,0.361c0.554,0.241,1.019,0.578,1.395,1.01
		c0.375,0.435,0.659,0.951,0.851,1.555s0.287,1.259,0.287,1.968c0,0.128-0.003,0.291-0.01,0.49c-0.008,0.198-0.019,0.368-0.032,0.51
		H293.225z M299.608,123.505c0-0.438-0.057-0.873-0.17-1.298c-0.114-0.426-0.291-0.799-0.532-1.117s-0.553-0.578-0.937-0.777
		c-0.383-0.199-0.844-0.298-1.383-0.298c-0.993,0-1.767,0.306-2.319,0.915c-0.555,0.61-0.888,1.469-1.001,2.575H299.608z"/>
	<path fill="#82888F" d="M308.822,129.889c-0.042-0.297-0.063-0.596-0.063-0.894c0-0.312,0.021-0.617,0.063-0.915
		c0.299-0.043,0.597-0.064,0.895-0.064c0.312,0,0.617,0.021,0.915,0.064c0.042,0.298,0.063,0.596,0.063,0.895
		c0,0.312-0.021,0.617-0.063,0.914c-0.298,0.043-0.596,0.064-0.895,0.064C309.426,129.954,309.121,129.932,308.822,129.889"/>
	<path fill="#82888F" d="M319.102,119.037c0.113-0.015,0.223-0.024,0.329-0.032c0.106-0.007,0.21-0.01,0.309-0.01
		c0.113,0,0.22,0.003,0.319,0.01c0.1,0.008,0.206,0.018,0.319,0.032c0.028,0.255,0.05,0.558,0.063,0.903
		c0.014,0.349,0.021,0.664,0.021,0.949c0.284-0.525,0.682-0.97,1.192-1.332c0.511-0.36,1.184-0.541,2.021-0.541h0.224
		c0.077,0,0.166,0.006,0.266,0.021c0.043,0.241,0.063,0.468,0.063,0.681c0,0.228-0.021,0.447-0.063,0.66
		c-0.114-0.014-0.202-0.021-0.266-0.021h-0.202c-0.966,0-1.738,0.306-2.32,0.914c-0.582,0.611-0.872,1.625-0.872,3.043v5.576
		c-0.085,0.015-0.202,0.024-0.352,0.032c-0.148,0.007-0.266,0.011-0.351,0.011c-0.071,0-0.185-0.004-0.341-0.011
		c-0.156-0.008-0.276-0.018-0.361-0.032V119.037z"/>
	<path fill="#82888F" d="M327.123,124.675c0,1.448,0.333,2.513,1,3.192c0.667,0.681,1.667,1.021,3.001,1.021
		c0.539,0,1.039-0.046,1.5-0.138c0.461-0.093,0.911-0.216,1.352-0.372c0.07,0.156,0.127,0.348,0.17,0.574s0.07,0.433,0.085,0.617
		c-0.411,0.185-0.894,0.326-1.447,0.426c-0.553,0.099-1.156,0.148-1.809,0.148c-0.937,0-1.741-0.139-2.415-0.414
		c-0.674-0.277-1.228-0.664-1.66-1.16c-0.433-0.498-0.752-1.09-0.958-1.777s-0.309-1.443-0.309-2.268
		c0-0.793,0.097-1.539,0.288-2.233c0.191-0.695,0.482-1.306,0.872-1.83s0.891-0.937,1.5-1.233c0.61-0.299,1.341-0.447,2.192-0.447
		c0.709,0,1.341,0.119,1.894,0.361c0.554,0.241,1.019,0.578,1.395,1.01c0.375,0.435,0.659,0.951,0.851,1.555
		s0.287,1.259,0.287,1.968c0,0.128-0.003,0.291-0.01,0.49c-0.008,0.198-0.019,0.368-0.032,0.51H327.123z M333.507,123.505
		c0-0.438-0.057-0.873-0.17-1.298c-0.114-0.426-0.291-0.799-0.532-1.117s-0.553-0.578-0.937-0.777
		c-0.383-0.199-0.844-0.298-1.383-0.298c-0.993,0-1.767,0.306-2.319,0.915c-0.554,0.61-0.887,1.469-1.001,2.575H333.507z"/>
	<path fill="#82888F" d="M337.7,128.4c0.312,0.128,0.716,0.238,1.213,0.33c0.496,0.092,0.972,0.138,1.426,0.138
		c0.851,0,1.524-0.188,2.021-0.563c0.496-0.375,0.745-0.841,0.745-1.394c0-0.384-0.075-0.699-0.224-0.947
		c-0.149-0.248-0.348-0.457-0.596-0.627c-0.249-0.17-0.529-0.31-0.841-0.416c-0.313-0.105-0.632-0.215-0.958-0.33
		c-0.354-0.112-0.706-0.24-1.053-0.383c-0.349-0.142-0.657-0.322-0.926-0.543c-0.271-0.22-0.486-0.485-0.649-0.798
		c-0.163-0.312-0.245-0.702-0.245-1.17c0-0.864,0.315-1.567,0.947-2.106c0.631-0.539,1.606-0.81,2.926-0.81
		c0.554,0,1.089,0.05,1.607,0.149c0.518,0.1,0.917,0.205,1.202,0.32c-0.071,0.41-0.171,0.815-0.298,1.213
		c-0.298-0.101-0.678-0.199-1.139-0.299c-0.461-0.099-0.94-0.148-1.437-0.148c-0.865,0-1.479,0.152-1.841,0.457
		s-0.543,0.706-0.543,1.201c0,0.271,0.061,0.5,0.181,0.692c0.121,0.192,0.284,0.355,0.49,0.49c0.205,0.134,0.439,0.251,0.702,0.351
		s0.543,0.191,0.841,0.276c0.383,0.128,0.77,0.267,1.159,0.416c0.391,0.147,0.745,0.343,1.064,0.584
		c0.319,0.242,0.581,0.547,0.787,0.916s0.309,0.83,0.309,1.383c0,0.511-0.103,0.976-0.309,1.394s-0.493,0.773-0.861,1.064
		c-0.369,0.291-0.809,0.514-1.319,0.67s-1.072,0.234-1.682,0.234c-0.682,0-1.287-0.042-1.819-0.128
		c-0.532-0.085-0.961-0.198-1.287-0.341C337.381,129.252,337.515,128.827,337.7,128.4"/>
	<path fill="#82888F" d="M348.51,124.675c0,1.448,0.333,2.513,1,3.192c0.667,0.681,1.667,1.021,3.001,1.021
		c0.539,0,1.039-0.046,1.5-0.138c0.461-0.093,0.911-0.216,1.352-0.372c0.07,0.156,0.127,0.348,0.17,0.574s0.07,0.433,0.085,0.617
		c-0.412,0.185-0.894,0.326-1.447,0.426c-0.553,0.099-1.156,0.148-1.809,0.148c-0.937,0-1.741-0.139-2.415-0.414
		c-0.674-0.277-1.228-0.664-1.66-1.16c-0.433-0.498-0.752-1.09-0.958-1.777s-0.309-1.443-0.309-2.268
		c0-0.793,0.097-1.539,0.288-2.233c0.191-0.695,0.482-1.306,0.872-1.83s0.891-0.937,1.5-1.233c0.61-0.299,1.341-0.447,2.192-0.447
		c0.708,0,1.341,0.119,1.894,0.361c0.554,0.241,1.019,0.578,1.395,1.01c0.375,0.435,0.659,0.951,0.851,1.555
		s0.287,1.259,0.287,1.968c0,0.128-0.003,0.291-0.01,0.49c-0.008,0.198-0.019,0.368-0.032,0.51H348.51z M354.894,123.505
		c0-0.438-0.057-0.873-0.17-1.298c-0.114-0.426-0.291-0.799-0.532-1.117s-0.553-0.578-0.937-0.777
		c-0.383-0.199-0.844-0.298-1.383-0.298c-0.993,0-1.767,0.306-2.319,0.915c-0.554,0.61-0.888,1.469-1.001,2.575H354.894z"/>
	<path fill="#82888F" d="M365.364,122.718c0-0.937-0.22-1.621-0.66-2.054c-0.439-0.432-1.092-0.649-1.957-0.649
		c-0.568,0-1.086,0.039-1.554,0.117c-0.469,0.079-0.887,0.174-1.256,0.288c-0.071-0.128-0.131-0.313-0.181-0.555
		c-0.05-0.24-0.074-0.467-0.074-0.68c0.368-0.113,0.822-0.209,1.361-0.287s1.092-0.117,1.66-0.117c1.376,0,2.397,0.302,3.064,0.904
		c0.667,0.604,1,1.551,1,2.84v7.172c-0.497,0.1-1.1,0.199-1.809,0.299c-0.71,0.099-1.384,0.148-2.021,0.148
		c-1.319,0-2.359-0.262-3.118-0.787c-0.759-0.524-1.138-1.375-1.138-2.554c0-0.567,0.109-1.075,0.328-1.522
		c0.221-0.446,0.526-0.821,0.916-1.127c0.391-0.306,0.858-0.535,1.405-0.691c0.546-0.156,1.145-0.234,1.798-0.234
		c0.511,0,0.95,0.018,1.319,0.053c0.369,0.037,0.674,0.067,0.915,0.097V122.718z M365.364,124.612
		c-0.241-0.027-0.543-0.061-0.904-0.096c-0.362-0.035-0.706-0.053-1.033-0.053c-1.063,0-1.886,0.199-2.468,0.596
		c-0.582,0.397-0.872,0.965-0.872,1.702c0,0.468,0.088,0.845,0.266,1.128c0.178,0.284,0.408,0.5,0.691,0.649
		c0.284,0.149,0.596,0.247,0.937,0.298c0.341,0.05,0.681,0.074,1.021,0.074c0.439,0,0.852-0.021,1.234-0.064
		c0.383-0.042,0.759-0.098,1.128-0.17V124.612z"/>
	<path fill="#82888F" d="M370.301,119.037c0.113-0.015,0.223-0.024,0.329-0.032c0.106-0.007,0.21-0.01,0.309-0.01
		c0.113,0,0.22,0.003,0.319,0.01c0.1,0.008,0.206,0.018,0.319,0.032c0.028,0.255,0.05,0.558,0.063,0.903
		c0.014,0.349,0.021,0.664,0.021,0.949c0.284-0.525,0.682-0.97,1.192-1.332c0.51-0.36,1.184-0.541,2.021-0.541h0.224
		c0.077,0,0.166,0.006,0.265,0.021c0.044,0.241,0.064,0.468,0.064,0.681c0,0.228-0.021,0.447-0.064,0.66
		c-0.113-0.014-0.201-0.021-0.265-0.021h-0.202c-0.966,0-1.738,0.306-2.32,0.914c-0.582,0.611-0.872,1.625-0.872,3.043v5.576
		c-0.085,0.015-0.202,0.024-0.352,0.032c-0.148,0.007-0.266,0.011-0.351,0.011c-0.071,0-0.185-0.004-0.341-0.011
		c-0.156-0.008-0.276-0.018-0.361-0.032V119.037z"/>
	<path fill="#82888F" d="M384.622,128.528c0.071,0.143,0.139,0.333,0.202,0.574c0.063,0.242,0.109,0.439,0.139,0.596
		c-0.355,0.128-0.76,0.234-1.213,0.319c-0.454,0.086-0.958,0.128-1.512,0.128c-1.773,0-3.121-0.486-4.043-1.457
		c-0.922-0.973-1.384-2.38-1.384-4.225c0-0.81,0.114-1.558,0.341-2.246c0.228-0.688,0.561-1.287,1.001-1.797
		c0.439-0.512,0.989-0.912,1.648-1.203c0.66-0.291,1.423-0.437,2.288-0.437c0.539,0,1.053,0.039,1.543,0.118
		c0.489,0.078,0.876,0.167,1.159,0.266c0,0.184-0.024,0.397-0.074,0.639c-0.05,0.24-0.103,0.433-0.159,0.574
		c-0.284-0.1-0.643-0.185-1.075-0.256c-0.433-0.07-0.897-0.105-1.394-0.105c-0.639,0-1.196,0.109-1.671,0.328
		c-0.476,0.222-0.872,0.529-1.192,0.927c-0.318,0.397-0.556,0.866-0.712,1.405s-0.234,1.135-0.234,1.787
		c0,1.531,0.365,2.656,1.097,3.373c0.73,0.717,1.72,1.074,2.968,1.074c0.426,0,0.834-0.035,1.224-0.107
		C383.959,128.734,384.31,128.642,384.622,128.528"/>
	<path fill="#82888F" d="M387.645,114.249c0.085-0.014,0.202-0.023,0.351-0.032c0.149-0.007,0.267-0.01,0.352-0.01
		c0.07,0,0.184,0.003,0.34,0.01c0.156,0.009,0.277,0.019,0.362,0.032v6.725c0.142-0.256,0.326-0.515,0.553-0.776
		c0.228-0.263,0.49-0.5,0.788-0.714c0.298-0.213,0.635-0.383,1.011-0.51s0.79-0.191,1.245-0.191c1.248,0,2.167,0.372,2.756,1.117
		c0.588,0.744,0.883,1.791,0.883,3.139v6.852c-0.085,0.015-0.201,0.025-0.352,0.032c-0.148,0.007-0.266,0.011-0.352,0.011
		c-0.07,0-0.184-0.004-0.34-0.011s-0.276-0.018-0.361-0.032v-6.427c0-1.205-0.199-2.071-0.597-2.596
		c-0.396-0.525-0.972-0.787-1.724-0.787c-0.496,0-0.961,0.092-1.394,0.276s-0.806,0.457-1.117,0.819
		c-0.313,0.362-0.557,0.816-0.734,1.362s-0.266,1.174-0.266,1.883v5.469c-0.085,0.015-0.202,0.025-0.352,0.032
		c-0.148,0.007-0.266,0.011-0.351,0.011c-0.071,0-0.185-0.004-0.341-0.011s-0.276-0.018-0.361-0.032V114.249z"/>
</g>
</svg>
